<svg xmlns="http://www.w3.org/2000/svg" width="67" height="24" viewBox="0 0 67 24" fill="none">
<path d="M2.22374 8.9507H0V17.7173H2.31559V12.7735C2.28853 12.5197 2.31735 12.2632 2.40001 12.0217C2.48267 11.7803 2.61717 11.5599 2.79407 11.376C2.97097 11.1921 3.18599 11.0491 3.42402 10.9571C3.66205 10.8651 3.91733 10.8264 4.17193 10.8436C4.42559 10.8269 4.6798 10.8662 4.91659 10.9587C5.15338 11.0511 5.36697 11.1945 5.54225 11.3786C5.71754 11.5627 5.85023 11.7831 5.93097 12.0241C6.0117 12.2651 6.03849 12.521 6.00945 12.7735V17.7173H8.32504V12.5898C8.32504 10.256 7.0386 8.67515 4.85138 8.67515C4.35713 8.63551 3.86059 8.71496 3.40339 8.90684C2.94619 9.09871 2.54167 9.39741 2.22374 9.77789V8.9507ZM16.4561 13.9863C16.4814 14.2421 16.4509 14.5004 16.3667 14.7432C16.2825 14.9861 16.1466 15.2078 15.9684 15.393C15.7902 15.5782 15.5739 15.7226 15.3344 15.8161C15.095 15.9096 14.8381 15.95 14.5815 15.9345C14.3249 15.95 14.0681 15.9096 13.8286 15.8161C13.5892 15.7226 13.3729 15.5782 13.1947 15.393C13.0164 15.2078 12.8805 14.9861 12.7963 14.7432C12.7121 14.5004 12.6816 14.2421 12.7069 13.9863L12.6624 8.9507H10.3485L10.393 14.1883C10.3913 16.5227 12.1741 17.9928 14.5815 17.9928C16.9889 17.9928 18.7717 16.5227 18.7717 14.1889L18.7272 8.9507H16.4116L16.4561 13.9863ZM20.3445 13.3246C20.3284 13.949 20.4413 14.57 20.6763 15.1488C20.9112 15.7275 21.2632 16.2516 21.71 16.688C22.1568 17.1245 22.689 17.464 23.2731 17.6853C23.8572 17.9065 24.4808 18.0048 25.1046 17.974C25.9534 18.0125 26.7961 17.8148 27.5392 17.4027C28.2822 16.9907 28.8963 16.3805 29.3131 15.6402L27.2548 14.6133C27.053 15.0038 26.7428 15.3277 26.3613 15.5461C25.9799 15.7645 25.5435 15.8681 25.1046 15.8444C24.7756 15.8571 24.4476 15.7998 24.1424 15.6762C23.8371 15.5527 23.5616 15.3657 23.334 15.1277C23.1064 14.8897 22.932 14.6061 22.8222 14.2957C22.7124 13.9852 22.6698 13.655 22.6972 13.3269C22.6691 12.9984 22.7112 12.6677 22.8207 12.3568C22.9301 12.0458 23.1044 11.7616 23.332 11.5232C23.5596 11.2847 23.8353 11.0973 24.1408 10.9734C24.4463 10.8496 24.7746 10.7921 25.1041 10.8048C25.5429 10.7811 25.9793 10.8847 26.3608 11.1031C26.7422 11.3215 27.0524 11.6454 27.2542 12.0359L29.3125 10.9885C28.8868 10.2572 28.2704 9.65548 27.5291 9.2476C26.7878 8.83972 25.9496 8.64106 25.1041 8.67287C24.48 8.6421 23.8564 8.74052 23.2722 8.96198C22.688 9.18344 22.1558 9.52316 21.7089 9.95985C21.2621 10.3965 20.9103 10.9208 20.6755 11.4998C20.4407 12.0788 20.3281 12.7 20.3445 13.3246ZM30.8568 4.30127V17.9928H33.1724V4.30127H30.8568ZM37.3808 14.1518H43.9414C43.9596 13.9498 43.9984 13.5813 43.9984 13.3063C43.9984 10.6781 42.271 8.67515 39.5327 8.67515C36.7761 8.67515 34.9751 10.6781 34.9751 13.3246C34.9751 15.9893 36.7761 17.9928 39.5327 17.9928C40.3742 18.0399 41.2125 17.8538 41.955 17.455C42.6976 17.0562 43.3156 16.4602 43.7411 15.7326L41.7547 14.7765C41.5074 15.1346 41.174 15.425 40.7853 15.6208C40.3966 15.8167 39.9649 15.9118 39.5298 15.8975C39.0243 15.9027 38.5328 15.7311 38.1403 15.4124C37.7479 15.0936 37.4792 14.6477 37.3808 14.1518ZM41.571 12.3143H37.4356C37.5583 11.8548 37.8312 11.4497 38.2108 11.1633C38.5904 10.8769 39.0549 10.7258 39.5304 10.734C40.0043 10.7052 40.4725 10.8496 40.8479 11.1403C41.2233 11.431 41.4803 11.8482 41.571 12.3143ZM47.9667 8.94841H45.7418V17.9928H48.0574V12.7735C48.0303 12.5197 48.0591 12.2632 48.1418 12.0217C48.2245 11.7803 48.359 11.5599 48.5359 11.376C48.7128 11.1921 48.9278 11.0491 49.1658 10.9571C49.4038 10.8651 49.6591 10.8264 49.9137 10.8436C50.1675 10.8268 50.4218 10.8659 50.6587 10.9583C50.8957 11.0507 51.1094 11.194 51.2848 11.3781C51.4602 11.5622 51.593 11.7827 51.6738 12.0238C51.7546 12.2649 51.7815 12.5209 51.7524 12.7735V17.9928H54.068V12.5898C54.068 10.256 52.7815 8.67515 50.5943 8.67515C50.1001 8.63551 49.6035 8.71496 49.1463 8.90684C48.6891 9.09871 48.2846 9.39741 47.9667 9.77789V8.94841ZM59.3792 8.94841V6.04466H58.4236L55.1525 11.0826H57.0636L57.1936 17.9928H59.5092L59.3792 11.0826H62.0992V8.9507L59.3792 8.94841Z" fill="#0D1826"/>
<path d="M64.3437 6.5931C65.6121 6.5931 66.6403 5.5649 66.6403 4.29655C66.6403 3.0282 65.6121 2 64.3437 2C63.0754 2 62.0471 3.0282 62.0471 4.29655C62.0471 5.5649 63.0754 6.5931 64.3437 6.5931Z" fill="#66BBB5"/>
</svg>